<svg width="108" height="108" viewBox="0 0 108 108" fill="none" xmlns="http://www.w3.org/2000/svg">
<g filter="url(#filter0_d_402_74)">
<rect x="4" width="100" height="100" rx="20" fill="url(#paint0_linear_402_74)"/>
</g>
<g clip-path="url(#clip0_402_74)">
<g filter="url(#filter1_d_402_74)">
<path d="M36 27C33.8783 27 31.8434 27.8429 30.3431 29.3431C28.8429 30.8434 28 32.8783 28 35V63.8C28 65.9217 28.8429 67.9566 30.3431 69.4569C31.8434 70.9571 33.8783 71.8 36 71.8H49.12C48.5967 70.7772 48.1755 69.7054 47.8624 68.6H36C34.727 68.6 33.5061 68.0943 32.6059 67.1941C31.7057 66.2939 31.2 65.073 31.2 63.8V35C31.2 33.727 31.7057 32.5061 32.6059 31.6059C33.5061 30.7057 34.727 30.2 36 30.2H64.8C66.073 30.2 67.2939 30.7057 68.1941 31.6059C69.0943 32.5061 69.6 33.727 69.6 35V46.8624C70.7168 47.1792 71.7856 47.5984 72.8 48.12V35C72.8 32.8783 71.9571 30.8434 70.4569 29.3431C68.9566 27.8429 66.9217 27 64.8 27H36ZM47.8624 59C48.1792 57.8832 48.5984 56.8144 49.12 55.8H36C35.5757 55.8 35.1687 55.9686 34.8686 56.2686C34.5686 56.5687 34.4 56.9757 34.4 57.4C34.4 57.8243 34.5686 58.2313 34.8686 58.5314C35.1687 58.8314 35.5757 59 36 59H47.8624ZM45.6 65.4C46.0243 65.4 46.4313 65.2314 46.7314 64.9314C47.0314 64.6313 47.2 64.2243 47.2 63.8C47.2 63.3757 47.0314 62.9687 46.7314 62.6686C46.4313 62.3686 46.0243 62.2 45.6 62.2H36C35.5757 62.2 35.1687 62.3686 34.8686 62.6686C34.5686 62.9687 34.4 63.3757 34.4 63.8C34.4 64.2243 34.5686 64.6313 34.8686 64.9314C35.1687 65.2314 35.5757 65.4 36 65.4H45.6ZM44 33.4C44.3096 33.4 44.6125 33.4897 44.8721 33.6584C45.1317 33.8271 45.3367 34.0675 45.4624 34.3504L51.8624 48.7504C51.9477 48.9424 51.9944 49.1494 51.9997 49.3595C52.005 49.5696 51.9689 49.7786 51.8934 49.9747C51.8179 50.1709 51.7046 50.3502 51.5598 50.5025C51.415 50.6548 51.2416 50.7771 51.0496 50.8624C50.8576 50.9477 50.6506 50.9944 50.4405 50.9997C50.2304 51.005 50.0214 50.9689 49.8253 50.8934C49.6291 50.8179 49.4498 50.7046 49.2975 50.5598C49.1452 50.415 49.0229 50.2416 48.9376 50.0496L47.2256 46.2H40.7744L39.0624 50.0496C38.8901 50.4375 38.5708 50.741 38.1747 50.8934C37.7787 51.0458 37.3383 51.0347 36.9504 50.8624C36.5625 50.6901 36.259 50.3708 36.1066 49.9747C35.9542 49.5787 35.9653 49.1383 36.1376 48.7504L42.5376 34.3504C42.6633 34.0675 42.8683 33.8271 43.1279 33.6584C43.3875 33.4897 43.6904 33.4 44 33.4ZM45.8048 43L44 38.9392L42.1952 43H45.8048ZM61.6 35C61.6 34.5757 61.4314 34.1687 61.1314 33.8686C60.8313 33.5686 60.4243 33.4 60 33.4C59.5757 33.4 59.1687 33.5686 58.8686 33.8686C58.5686 34.1687 58.4 34.5757 58.4 35V38.2H55.2C54.7757 38.2 54.3687 38.3686 54.0686 38.6686C53.7686 38.9687 53.6 39.3757 53.6 39.8C53.6 40.2243 53.7686 40.6313 54.0686 40.9314C54.3687 41.2314 54.7757 41.4 55.2 41.4H58.4V44.6C58.4 45.0243 58.5686 45.4313 58.8686 45.7314C59.1687 46.0314 59.5757 46.2 60 46.2C60.4243 46.2 60.8313 46.0314 61.1314 45.7314C61.4314 45.4313 61.6 45.0243 61.6 44.6V41.4H64.8C65.2243 41.4 65.6313 41.2314 65.9314 40.9314C66.2314 40.6313 66.4 40.2243 66.4 39.8C66.4 39.3757 66.2314 38.9687 65.9314 38.6686C65.6313 38.3686 65.2243 38.2 64.8 38.2H61.6V35ZM79.2 63.8C79.2 67.6191 77.6829 71.2818 74.9823 73.9823C72.2818 76.6829 68.6191 78.2 64.8 78.2C60.9809 78.2 57.3182 76.6829 54.6177 73.9823C51.9171 71.2818 50.4 67.6191 50.4 63.8C50.4 59.9809 51.9171 56.3182 54.6177 53.6177C57.3182 50.9171 60.9809 49.4 64.8 49.4C68.6191 49.4 72.2818 50.9171 74.9823 53.6177C77.6829 56.3182 79.2 59.9809 79.2 63.8ZM66.4 57.4C66.4 56.9757 66.2314 56.5687 65.9314 56.2686C65.6313 55.9686 65.2243 55.8 64.8 55.8C64.3757 55.8 63.9687 55.9686 63.6686 56.2686C63.3686 56.5687 63.2 56.9757 63.2 57.4V62.2H58.4C57.9757 62.2 57.5687 62.3686 57.2686 62.6686C56.9686 62.9687 56.8 63.3757 56.8 63.8C56.8 64.2243 56.9686 64.6313 57.2686 64.9314C57.5687 65.2314 57.9757 65.4 58.4 65.4H63.2V70.2C63.2 70.6243 63.3686 71.0313 63.6686 71.3314C63.9687 71.6314 64.3757 71.8 64.8 71.8C65.2243 71.8 65.6313 71.6314 65.9314 71.3314C66.2314 71.0313 66.4 70.6243 66.4 70.2V65.4H71.2C71.6243 65.4 72.0313 65.2314 72.3314 64.9314C72.6314 64.6313 72.8 64.2243 72.8 63.8C72.8 63.3757 72.6314 62.9687 72.3314 62.6686C72.0313 62.3686 71.6243 62.2 71.2 62.2H66.4V57.4Z" fill="#FBF9F9"/>
</g>
</g>
<defs>
<filter id="filter0_d_402_74" x="0" y="0" width="108" height="108" filterUnits="userSpaceOnUse" color-interpolation-filters="sRGB">
<feFlood flood-opacity="0" result="BackgroundImageFix"/>
<feColorMatrix in="SourceAlpha" type="matrix" values="0 0 0 0 0 0 0 0 0 0 0 0 0 0 0 0 0 0 127 0" result="hardAlpha"/>
<feOffset dy="4"/>
<feGaussianBlur stdDeviation="2"/>
<feComposite in2="hardAlpha" operator="out"/>
<feColorMatrix type="matrix" values="0 0 0 0 0 0 0 0 0 0 0 0 0 0 0 0 0 0 0.25 0"/>
<feBlend mode="normal" in2="BackgroundImageFix" result="effect1_dropShadow_402_74"/>
<feBlend mode="normal" in="SourceGraphic" in2="effect1_dropShadow_402_74" result="shape"/>
</filter>
<filter id="filter1_d_402_74" x="24" y="27" width="59.2" height="59.2" filterUnits="userSpaceOnUse" color-interpolation-filters="sRGB">
<feFlood flood-opacity="0" result="BackgroundImageFix"/>
<feColorMatrix in="SourceAlpha" type="matrix" values="0 0 0 0 0 0 0 0 0 0 0 0 0 0 0 0 0 0 127 0" result="hardAlpha"/>
<feOffset dy="4"/>
<feGaussianBlur stdDeviation="2"/>
<feComposite in2="hardAlpha" operator="out"/>
<feColorMatrix type="matrix" values="0 0 0 0 0 0 0 0 0 0 0 0 0 0 0 0 0 0 0.25 0"/>
<feBlend mode="normal" in2="BackgroundImageFix" result="effect1_dropShadow_402_74"/>
<feBlend mode="normal" in="SourceGraphic" in2="effect1_dropShadow_402_74" result="shape"/>
</filter>
<linearGradient id="paint0_linear_402_74" x1="-12" y1="-6" x2="104" y2="100" gradientUnits="userSpaceOnUse">
<stop stop-color="#2609DB"/>
<stop offset="1" stop-color="#07A4FC"/>
</linearGradient>
<clipPath id="clip0_402_74">
<rect width="64" height="64" fill="white" transform="translate(22 21)"/>
</clipPath>
</defs>
</svg>
